<?xml version="1.0" standalone="no"?><!DOCTYPE svg PUBLIC "-//W3C//DTD SVG 1.1//EN" "http://www.w3.org/Graphics/SVG/1.1/DTD/svg11.dtd"><svg t="1781618153051" class="icon" viewBox="0 0 1186 1024" version="1.1" xmlns="http://www.w3.org/2000/svg" p-id="1353" id="mx_n_1781618153053" width="74.125" height="64" xmlns:xlink="http://www.w3.org/1999/xlink"><path d="M231.927969 602.774588c95.034562 0.001673 172.077176 76.50217 172.077176 170.869124 0 94.368627-77.040941 170.869124-172.077176 170.869125-33.480784 0-64.73119-9.497098-91.164445-25.924602l-88.663006 97.336889c-8.091608 8.881359-21.852026 9.523869-30.733386 1.433935l-14.262379-12.994092c-8.881359-8.091608-9.523869-21.850353-1.432261-30.731712l88.674718-97.350275c-21.656261-28.578301-34.494745-64.120471-34.494745-102.639268 0-94.366954 77.040941-170.867451 172.075504-170.869124z m0.605699 45.887582c-69.359268 0-125.587242 56.227974-125.587242 125.587242 0 69.357595 56.227974 125.583895 125.587242 125.583895 69.357595 0 125.585569-56.226301 125.585569-125.583895 0-69.359268-56.227974-125.585569-125.585569-125.587242z" fill="#cccccc" p-id="1354"></path><path d="M681.40708 72.842876c0.145569 0 17.988601 0.113778 17.988601 27.572706 0 27.458928-17.843033 27.641307-17.988601 27.64298l-45.564654-0.552157c-15.708026 0-28.444444 12.736418-28.444444 28.444445v783.05715c0 14.784418 11.986824 26.771242 26.771242 26.771242h286.117647c43.43132 0 78.63885-35.207529 78.640522-78.63885l0.028445-304.444235c0.061908-0.122144 5.995085-11.710745 26.752837-11.712418 20.719268 0.001673 25.94468 11.548444 26.016627 11.712418l-2.600157 321.244863c-0.001673 63.760732-51.690248 115.45098-115.45098 115.45098l-585.651033-0.070275c-0.132183-0.001673-6.69281-0.245961-6.69281-24.181124 0-29.061856 6.560627-29.358013 6.69281-29.361359l177.389595 0.070274c14.784418 0 26.769569-11.986824 26.771242-26.771241V157.694327c-0.001673-16.631634-13.486013-30.117647-30.117647-30.117647h-276.078432c-47.127425 0-85.333333 38.205908-85.333333 85.333333v352.217516c0.008366 0.132183 0.630797 10.875817-25.128157 10.875817-25.757281 0-25.077961-10.743634-25.067922-10.875817V187.811974c0-63.760732 51.690248-115.45098 115.450981-115.450981l455.497621 0.481883z" fill="#cccccc" p-id="1355"></path><path d="M1117.378426 371.238484c3.503686-3.502013 10.976209-5.190275 20.712575-1.825464l0.404915 0.132183 0.001674 0.001673c1.064157 0.34468 3.513725 1.136105 6.036915 2.419451 2.891294 1.469072 6.246065 3.75634 7.708444 7.104418 0.803137 1.840523 1.604601 5.12502 0.092026 12.684549-0.401569 2.01119-1.75519 5.794301-3.784784 10.586353-2.049673 4.837229-4.835556 10.818928-8.173595 17.270797-6.671059 12.893699-15.584209 27.760105-25.251974 39.21485a109.738667 109.738667 0 0 1-2.844444 3.227608l0.993882 0.664261 0.003347 0.003347c0.768 0.515346 1.554405 1.040732 2.357542 1.57281 8.319163 5.513203 15.127425 8.934902 23.496784 13.141334l0.00502 0.001673 0.030118 0.016732 0.003346 0.001673c2.728993 1.370353 5.62698 2.826039 8.794353 4.465778 5.175216 2.677124 8.906458 4.515974 13.084444 6.575686l0.011713 0.00502c2.278902 1.122719 4.693333 2.314039 7.547817 3.741281 2.924758 1.462379 7.106092 3.582327 9.492078 7.996235 1.567791 2.901333 1.763556 6.410039 1.517595 9.323085-0.247634 2.929778-0.963765 5.503163-1.45234 6.696157-1.475765 3.600732-3.460183 6.410039-6.110536 8.508235-2.647007 2.093176-5.871268 3.415007-9.721307 4.18468-3.779765 0.756288-7.666614 0.491922-12.24617 0.021752-1.072523-0.110431-2.94651-0.563869-5.180235-1.199687-2.277229-0.649203-5.049725-1.522614-7.971137-2.519843-5.829438-1.987765-12.356601-4.502588-16.872576-6.759738-8.951634-4.475817-22.494536-13.017516-35.607424-22.250249l-0.033465-0.021751-0.003346-0.003347-0.015059-0.011712-0.023425-0.018406-0.03681-0.030117-0.068601-0.050196-0.081987-0.060236-0.056889-0.04183-0.028445-0.021751-0.145568-0.107085-0.754615-0.570562a374.195033 374.195033 0 0 1-3.302902-2.544941l-0.25098-0.195765-0.281098-0.220863-0.557177-0.436706-0.150588 0.118798-0.147242 0.115451-0.045176 0.03681-0.396549 0.311216c-1.397124 1.087582-2.524863 1.954301-3.304575 2.546614-0.304523 0.230902-0.557176 0.419974-0.751268 0.563869l-0.147242 0.112105-0.157281 0.117124-0.080314 0.058562-0.040157 0.030118-0.020078 0.016732-0.015059 0.011712-0.001673 0.001674-0.035137 0.023424c-13.114562 9.232732-26.655791 17.776105-35.607425 22.251922-4.515974 2.25715-11.043137 4.768627-16.872575 6.758065a169.154092 169.154092 0 0 1-7.971138 2.519843c-2.233725 0.635817-4.106039 1.089255-5.178562 1.199687-4.581229 0.468497-8.466405 0.734536-12.24617-0.021752-3.850039-0.769673-7.075974-2.091503-9.72298-4.18468-2.650353-2.099869-4.634771-4.907503-6.110536-8.508235-0.488575-1.192993-1.204706-3.766379-1.45234-6.696157-0.245961-2.913046-0.048523-6.421752 1.519268-9.323085 2.385987-4.413908 6.565647-6.533856 9.492079-7.996235a1307.505778 1307.505778 0 0 1 7.546143-3.739608l0.01004-0.006693c4.17966-2.059712 7.910902-3.896889 13.086117-6.574013 3.182431-1.646431 6.090458-3.10881 8.82949-4.485856l0.00502-0.001673 0.001673-0.001673c8.367686-4.204758 15.175948-7.628131 23.495111-13.141334l0.403242-0.267712 0.143896-0.095373 0.327947-0.219189 0.973804-0.652549 0.013386-0.01004 0.443399-0.296156 0.739555-0.495268a107.324235 107.324235 0 0 1-2.534902-2.887948c-9.667765-11.453072-18.580915-26.322824-25.251974-39.213177-3.338039-6.453542-6.125595-12.435242-8.175268-17.27247-2.029595-4.792052-3.381542-8.575163-3.784784-10.586353-1.510902-7.559529-0.711111-10.844026 0.092026-12.684549 1.462379-3.348078 4.81715-5.635346 7.708445-7.104418 2.52319-1.283346 4.974431-2.076444 6.038588-2.421125l0.404915-0.132183c9.734693-3.36481 17.208889-1.676549 20.712575 1.825464 0.873412 0.875085 1.944261 2.436183 3.105464 4.313517 1.184627 1.91749 2.546614 4.303477 3.998954 6.925385a955.932444 955.932444 0 0 1 3.990589 7.306876l0.005019 0.010039 0.023425 0.041831v0.005019a802.51817 802.51817 0 0 0 5.352575 9.758118 882.606013 882.606013 0 0 1 3.438431 6.202562l0.001674 0.001673c5.314092 9.642667 9.123974 16.561359 17.064993 26.036706 0.430013 0.515346 0.866719 1.015634 1.290039 1.510902l0.369778-0.42834c0.38149-0.443399 0.769673-0.89349 1.15451-1.353621 7.94102-9.47702 11.752575-16.394039 17.064993-26.038379l0.00502-0.008366 0.03681-0.063582 0.028445-0.055215c1.050771-1.904105 2.158431-3.916967 3.36983-6.075399a789.440418 789.440418 0 0 0 5.38102-9.815007 955.932444 955.932444 0 0 1 3.990588-7.306875c1.45234-2.621908 2.812654-5.007895 3.998954-6.927059 1.161203-1.877333 2.230379-3.436758 3.105464-4.311843z" fill="#cccccc" p-id="1356"></path><path d="M771.624492 366.600366c2.283922-0.301176 3.615791-0.286118 5.903058 0 11.320889 1.415529 20.659033 8.854588 20.659033 20.660706v45.747033c0.001673 14.362771 10.332026 30.989386 28.039529 30.991058h66.407739c4.428967 0 14.757647 5.903059 14.75932 13.28021v17.709176c-0.001673 7.378824-10.330353 14.755974-14.75932 14.757647h-72.310797c-21.174379-0.001673-36.417255-14.585307-41.466981-19.417516-0.578928-0.55383-1.025673-0.98217-1.328523-1.24319-2.954876-2.529882-15.78332-17.289203-20.660706-30.991059-3.336366-9.369935-4.427294-17.707503-4.427294-25.086326v-45.747033c0.001673-11.804444 9.077124-19.33051 19.184942-20.660706z" fill="#cccccc" p-id="1357"></path><path d="M1085.955681 274.952366c9.778196-0.03681 17.737621 7.860706 17.777778 17.638902l0.092026 23.613908h64.771346c9.779869 0 17.707503 7.929307 17.707504 17.709177v8.854588c0 9.778196-7.927634 17.70583-17.707504 17.707503H994.459942c-9.779869-0.001673-17.707503-7.929307-17.709176-17.707503v-8.854588c0-9.779869 7.929307-17.709176 17.709176-17.709177h65.092602l-0.090353-23.439895c-0.038484-9.778196 7.859033-17.739294 17.638902-17.777778l8.854588-0.035137z" fill="#cccccc" p-id="1358"></path><path d="M816.817694 2.568366c5.531608-2.911373 11.212131-3.346405 17.036549-1.310118a20.687477 20.687477 0 0 1 6.987294 3.932027c5.824418 2.037961 9.903686 5.969987 12.232785 11.794405l54.382431 134.321359 54.384105 134.32136c2.620235 6.988967 2.620235 13.106196 0 18.346666-2.621908 4.949333-6.69783 8.590222-12.231112 10.920994-5.531608 2.037961-11.066562 2.329098-16.599843 0.873412-5.240471-1.746824-9.318065-5.97166-12.229438-12.667817l-32.761307-84.744366c-11.936627 0.582275-18.634458 0.875085-20.09349 0.875085-39.311895 1.455686-70.184157 2.183529-92.606745 2.183529-13.10285 38.438484-22.568157 65.668183-28.392575 81.685752-2.620235 6.987294-6.699503 11.356026-12.231111 13.104522-5.531608 1.455686-11.066562 1.162876-16.59817-0.875084-5.531608-2.329098-9.756444-5.969987-12.667817-10.919321-2.620235-5.242144-2.47634-11.213804 0.435032-17.909961 5.824418-14.269072 13.542902-35.96549 23.152105-65.085908 9.318065-29.118745 16.017569-48.777203 20.09349-58.970353 2.039634-5.824418 10.338719-26.503529 24.898928-62.028967 13.686797-34.944837 24.318327-63.337412 31.889569-85.177726 2.037961-5.822745 5.67885-10.047582 10.91932-12.66949z m-25.335634 174.290824c24.460549-0.291137 50.671268-0.873412 78.627137-1.746824l-39.750274-96.100392-38.876863 97.847216z" fill="#cccccc" p-id="1359"></path><path d="M1103.663184 69.755817c21.174379 0.001673 36.418928 14.588654 41.466981 19.41919 0.578928 0.55383 1.025673 0.98217 1.330196 1.241516 2.953203 2.529882 15.781647 17.289203 20.659032 30.991059 3.336366 9.369935 4.427294 17.71085 4.427295 25.088v45.747032c-0.001673 11.804444-9.075451 19.332183-19.183268 20.660706-2.283922 0.301176-3.617464 0.286118-5.903059 0-11.322562-1.415529-20.660706-8.856261-20.660706-20.660706V146.495582c0-14.362771-10.332026-30.991059-28.03953-30.992732h-66.407738c-4.428967 0-14.757647-5.903059-14.75932-13.280209V84.513464c0.001673-7.378824 10.330353-14.754301 14.75932-14.757647h72.310797z" fill="#cccccc" p-id="1360"></path></svg>